<svg id="Layer_1" data-name="Layer 1" xmlns="http://www.w3.org/2000/svg" viewBox="0 0 500 500" width="500" height="500" class="illustration"><defs><style>.cls-1{fill:#f2f2f2;}.cls-2{fill:#c3c7c9;opacity:0.26;}.cls-3{fill:#ff1778;}.cls-4{fill:#fff;}</style></defs><title>Internet security</title><path class="cls-1" d="M456.08,144.44V403.51a14.25,14.25,0,0,1-14.26,14.26H52.61a14.26,14.26,0,0,1-14.27-14.26V144.44Z"></path><path class="cls-2" d="M38.34,144.44v33.09H434.11V417.77h7.71a14.25,14.25,0,0,0,14.26-14.26V144.44Z"></path><path class="cls-3" d="M456.08,95.1v63.09H38.34V95.1A14.27,14.27,0,0,1,52.61,80.83H441.82A14.26,14.26,0,0,1,456.08,95.1Z"></path><circle class="cls-4" cx="129.45" cy="116.87" r="6.94"></circle><circle class="cls-4" cx="97.83" cy="116.87" r="6.94"></circle><circle class="cls-4" cx="66.22" cy="116.87" r="6.94"></circle><path class="cls-3" d="M246.5,372.88a80.68,80.68,0,1,1,57.06-137.72h0A80.66,80.66,0,0,1,246.5,372.88Zm0-148.36a67.7,67.7,0,1,0,47.87,19.83A67.29,67.29,0,0,0,246.5,224.52Z"></path><rect class="cls-3" x="172.3" y="285.72" width="148.4" height="13" transform="translate(-134.43 259.89) rotate(-45)"></rect></svg>