<svg xmlns="http://www.w3.org/2000/svg" viewBox="0 0 500 500" width="500" height="500" class="illustration"><g id="Layer_10" data-name="Layer 10"><rect x="76.04" y="47.46" width="29.87" height="397.53" fill="#3fe2fd"></rect><rect x="140.95" y="159.33" width="56.88" height="48.13" fill="#3fe2fd"></rect><rect x="137.32" y="261.44" width="50.76" height="52.23" fill="#3fe2fd"></rect><polygon points="328.15 57.12 328.15 126.51 395.45 126.51 328.15 57.12" fill="#3fe2fd"></polygon><polygon points="439.29 101.73 457.49 112.51 318.7 373.22 321.02 327.67 439.29 101.73" fill="#3fe2fd"></polygon></g><g id="Layer_3" data-name="Layer 3"><path d="M358.11,350.14a7,7,0,0,1-3.26-.82l-34.79-18.39a7,7,0,0,1-3.42-4.12,7.08,7.08,0,0,1,.5-5.34L434.54,99.41A7,7,0,0,1,444,96.49l34.79,18.39a7,7,0,0,1,2.91,9.46L364.31,346.41A7,7,0,0,1,358.11,350.14Zm-25.32-28.31,22.41,11.84L466.05,124l-22.4-11.85Z" fill="#251ac7"></path><path d="M316.26,387.22a6.91,6.91,0,0,1-3.27-.81,7,7,0,0,1-3.68-7.07l7.08-55.48a7,7,0,0,1,13.89,1.77l-4.72,37,27.92-24.74a7,7,0,0,1,9.28,10.48L320.9,385.46A7,7,0,0,1,316.26,387.22Z" fill="#251ac7"></path><path d="M456.67,163.7a7,7,0,0,1-3.26-.81L418.62,144.5a7,7,0,0,1,6.54-12.38L460,150.51a7,7,0,0,1-3.28,13.19Z" fill="#251ac7"></path><path d="M396.34,449.44H80.25a10.08,10.08,0,0,1-10.06-10.06V48.86A10.07,10.07,0,0,1,80.25,38.8H325.3a7,7,0,0,1,5.16,2.27l74.1,80.82a7,7,0,0,1,1.84,4.73v48.49a7,7,0,0,1-14,0V129.35L322.22,52.8h-238V435.44H392.4V271.63a7,7,0,0,1,14,0V439.38A10.07,10.07,0,0,1,396.34,449.44Z" fill="#251ac7"></path><path d="M399.4,133.35H331.08A10.07,10.07,0,0,1,321,123.29V45.8a7,7,0,0,1,12.24-4.65l71.38,80.56a7,7,0,0,1-5.24,11.64Zm-64.38-14h48.82L335,64.25Z" fill="#251ac7"></path><path d="M311.7,387.22H225.2a7,7,0,0,1,0-14h86.5a7,7,0,1,1,0,14Z" fill="#251ac7"></path><path d="M195.08,221.46H134a7,7,0,0,1-7-7V153.33a7,7,0,0,1,7-7h61.13a7,7,0,0,1,7,7v61.13A7,7,0,0,1,195.08,221.46Zm-54.13-14h47.13V160.33H141Z" fill="#251ac7"></path><path d="M321.15,190.89H231.53a7,7,0,1,1,0-14h89.62a7,7,0,0,1,0,14Z" fill="#251ac7"></path><path d="M195.08,327.67H134a7,7,0,0,1-7-7V259.54a7,7,0,0,1,7-7h61.13a7,7,0,0,1,7,7v61.13A7,7,0,0,1,195.08,327.67Zm-54.13-14h47.13V266.54H141Z" fill="#251ac7"></path><path d="M321.15,297.1H231.53a7,7,0,1,1,0-14h89.62a7,7,0,0,1,0,14Z" fill="#251ac7"></path><path d="M164.46,202.43a7,7,0,0,1-4.59-1.71l-11.31-9.8a7,7,0,0,1,9.17-10.58l5.21,4.51,6.45-10a7,7,0,1,1,11.77,7.58l-10.82,16.8a7,7,0,0,1-4.89,3.14A6.59,6.59,0,0,1,164.46,202.43Z" fill="#251ac7"></path><path d="M164.46,306.55a7,7,0,0,1-4.59-1.71L148.56,295a7,7,0,0,1,9.17-10.58l5.21,4.52,6.45-10a7,7,0,1,1,11.77,7.58l-10.82,16.81a7,7,0,0,1-4.89,3.14A8.24,8.24,0,0,1,164.46,306.55Z" fill="#251ac7"></path></g></svg>