<svg xmlns="http://www.w3.org/2000/svg" viewBox="0 0 500 500" width="500" height="500" class="illustration"><g id="Layer_10" data-name="Layer 10"><rect x="70.02" y="103.08" width="23.49" height="341.33" fill="#3fe2fd"></rect><rect x="115.98" y="61.76" width="23.49" height="71.6" fill="#3fe2fd"></rect><rect x="332.93" y="61.76" width="23.49" height="71.6" fill="#3fe2fd"></rect><rect x="121.49" y="220.17" width="35.26" height="59.09" fill="#3fe2fd"></rect><rect x="325.34" y="326.49" width="37.28" height="59.09" fill="#3fe2fd"></rect><rect x="220.38" y="326.49" width="40.36" height="59.09" fill="#3fe2fd"></rect></g><g id="Layer_3" data-name="Layer 3"><path d="M333,110H162.22a6.9,6.9,0,1,1,0-13.79H333A6.9,6.9,0,0,1,333,110Z" fill="#251ac7"></path><path d="M429.26,451.74H70.74a6.89,6.89,0,0,1-6.89-6.89V103.08a6.9,6.9,0,0,1,6.89-6.9h47.18a6.9,6.9,0,0,1,0,13.79H77.64V438H422.36V110H382.08a6.9,6.9,0,0,1,0-13.79h47.18a6.9,6.9,0,0,1,6.89,6.9V444.85A6.89,6.89,0,0,1,429.26,451.74Z" fill="#251ac7"></path><path d="M429.26,187.07H70.74a6.9,6.9,0,0,1,0-13.79H429.26a6.9,6.9,0,0,1,0,13.79Z" fill="#251ac7"></path><path d="M150.22,143.1H132.41a18.91,18.91,0,0,1-18.89-18.89v-54a18.91,18.91,0,0,1,18.89-18.89h17.81a18.91,18.91,0,0,1,18.89,18.89v54A18.91,18.91,0,0,1,150.22,143.1Zm-17.81-78a5.11,5.11,0,0,0-5.1,5.11v54a5.12,5.12,0,0,0,5.1,5.11h17.81a5.12,5.12,0,0,0,5.1-5.11v-54a5.11,5.11,0,0,0-5.1-5.11Z" fill="#251ac7"></path><path d="M367.58,143.1h-17.8a18.91,18.91,0,0,1-18.89-18.89v-54a18.91,18.91,0,0,1,18.89-18.89h17.8a18.91,18.91,0,0,1,18.9,18.89v54A18.91,18.91,0,0,1,367.58,143.1Zm-17.8-78a5.11,5.11,0,0,0-5.1,5.11v54a5.12,5.12,0,0,0,5.1,5.11h17.8a5.12,5.12,0,0,0,5.11-5.11v-54a5.11,5.11,0,0,0-5.11-5.11Z" fill="#251ac7"></path><path d="M176.13,290.5H117.92a6.88,6.88,0,0,1-6.89-6.89V225.4a6.88,6.88,0,0,1,6.89-6.89h58.21a6.89,6.89,0,0,1,6.9,6.89v58.21A6.89,6.89,0,0,1,176.13,290.5Zm-51.32-13.78h44.43V232.29H124.81Z" fill="#251ac7"></path><path d="M279.11,290.5H220.89a6.89,6.89,0,0,1-6.89-6.89V225.4a6.89,6.89,0,0,1,6.89-6.89h58.22A6.89,6.89,0,0,1,286,225.4v58.21A6.89,6.89,0,0,1,279.11,290.5Zm-51.32-13.78h44.42V232.29H227.79Z" fill="#251ac7"></path><path d="M382.08,290.5H323.87a6.89,6.89,0,0,1-6.9-6.89V225.4a6.89,6.89,0,0,1,6.9-6.89h58.21A6.88,6.88,0,0,1,389,225.4v58.21A6.88,6.88,0,0,1,382.08,290.5Zm-51.32-13.78h44.43V232.29H330.76Z" fill="#251ac7"></path><path d="M176.13,394H117.92a6.88,6.88,0,0,1-6.89-6.89V328.94a6.89,6.89,0,0,1,6.89-6.9h58.21a6.9,6.9,0,0,1,6.9,6.9v58.21A6.89,6.89,0,0,1,176.13,394Zm-51.32-13.78h44.43V335.83H124.81Z" fill="#251ac7"></path><path d="M279.11,394H220.89a6.89,6.89,0,0,1-6.89-6.89V328.94a6.9,6.9,0,0,1,6.89-6.9h58.22a6.9,6.9,0,0,1,6.89,6.9v58.21A6.89,6.89,0,0,1,279.11,394Zm-51.32-13.78h44.42V335.83H227.79Z" fill="#251ac7"></path><path d="M382.08,394H323.87a6.89,6.89,0,0,1-6.9-6.89V328.94a6.9,6.9,0,0,1,6.9-6.9h58.21a6.89,6.89,0,0,1,6.89,6.9v58.21A6.88,6.88,0,0,1,382.08,394Zm-51.32-13.78h44.43V335.83H330.76Z" fill="#251ac7"></path></g></svg>