<svg id="Layer_1" xmlns="http://www.w3.org/2000/svg" viewBox="0 0 500 500" width="500" height="500" class="illustration"><defs><style>.cls-1{fill:#007fcc;}.cls-2{fill:#f9bb0d;}.cls-3{fill:#ffd44d;}.cls-4{fill:#0099f5;}</style></defs><path class="cls-4" d="M128.14,90.54c-.69,.47-1.15,1.26-1.15,2.16,0-.9,.45-1.69,1.15-2.16Z"></path><path class="cls-4" d="M128.59,90.3c.31-.13,.65-.2,1.01-.2-.36,0-.7,.07-1.01,.2Z"></path><g><g><path class="cls-2" d="M92.45,145.42H407.58c6.06,0,10.99,4.92,10.99,10.99v183.33H81.47V156.41c0-6.06,4.92-10.99,10.99-10.99Z"></path><path class="cls-3" d="M418.91,156.66v186.14c0,5.58-3.92,10.26-9.15,11.41-.1,.03-.21,.06-.33,.08-.72,.14-1.46,.21-2.22,.21H93.17c-6.46,0-11.7-5.24-11.7-11.7V156.74c0-3.67,1.69-6.94,4.33-9.09l155.8,96.82c5.43,3.37,12.31,3.36,17.73-.02l109.95-68.65,45-28.1,.25-.16c2.67,2.14,4.38,5.43,4.38,9.12Z"></path><path class="cls-2" d="M418.54,156.74v186.14c0,5.45-3.72,10.03-8.78,11.33-.1,.03-.21,.06-.33,.08-.83,.19-1.7,.29-2.59,.29H92.8c-6.46,0-11.7-5.24-11.7-11.7v-12.76H357.57c6.46,0,11.7-5.24,11.7-11.7V175.8l45-28.1c2.6,2.15,4.26,5.4,4.26,9.04Z"></path></g><g><g><path class="cls-4" d="M349.28,71.85c-.17-.84-.6-1.62-1.28-2.14,.68,.52,1.11,1.3,1.28,2.14Z"></path><path class="cls-4" d="M302.11,41.07v5.99H156.03v35.68c0,1.44,1.16,2.6,2.6,2.6h148.88v5.99c0,2.78,2.51,4.47,4.44,2.99l34.14-26.06,1.91,1.46-41.45-31.64c-1.93-1.48-4.44,.22-4.44,2.99Z"></path></g><path class="cls-1" d="M348,69.72l-1.91-1.46-34.14,26.06c-1.93,1.48-4.44-.22-4.44-2.99v-5.99H158.63c-1.44,0-2.6-1.16-2.6-2.6V47.06h-2.8c-.36,0-.7,.07-1.01,.2-.16,.07-.3,.15-.44,.24-.69,.47-1.15,1.26-1.15,2.16v46.09c0,1.44,1.16,2.6,2.6,2.6h148.88v5.99c0,2.78,2.51,4.47,4.44,2.99l41.45-31.64c.68-.52,1.11-1.3,1.28-2.14,.06-.28,.09-.57,.09-.86,0-1.15-.45-2.3-1.36-2.99Z"></path></g><g><g><path class="cls-4" d="M150.72,428.15c.17,.84,.6,1.62,1.28,2.14-.68-.52-1.11-1.3-1.28-2.14Z"></path><path class="cls-4" d="M197.89,458.93v-5.99h146.08v-35.68c0-1.44-1.16-2.6-2.6-2.6H192.49v-5.99c0-2.78-2.51-4.47-4.44-2.99l-34.14,26.06-1.91-1.46,41.45,31.64c1.93,1.48,4.44-.22,4.44-2.99Z"></path></g><path class="cls-1" d="M152,430.28l1.91,1.46,34.14-26.06c1.93-1.48,4.44,.22,4.44,2.99v5.99h148.88c1.44,0,2.6,1.16,2.6,2.6v35.68h2.8c.36,0,.7-.07,1.01-.2,.16-.07,.3-.15,.44-.24,.69-.47,1.15-1.26,1.15-2.16v-46.09c0-1.44-1.16-2.6-2.6-2.6H197.89v-5.99c0-2.78-2.51-4.47-4.44-2.99l-41.45,31.64c-.68,.52-1.11,1.3-1.28,2.14-.06,.28-.09,.57-.09,.86,0,1.15,.45,2.3,1.36,2.99Z"></path></g></g></svg>